<svg width="300" height="188" viewBox="0 0 300 188" fill="none" xmlns="http://www.w3.org/2000/svg">
<path d="M299.59 17.0827H220.587V94.3605H299.59V17.0827Z" fill="white"/>
<path d="M299.59 94.7613H220.596C220.49 94.7613 220.388 94.7191 220.313 94.6439C220.238 94.5688 220.195 94.4668 220.195 94.3605V17.0827C220.195 16.9764 220.238 16.8745 220.313 16.7993C220.388 16.7242 220.49 16.682 220.596 16.682H299.599C299.705 16.6842 299.805 16.7271 299.88 16.8018C299.955 16.8765 299.998 16.9771 300 17.0827V94.3605C299.998 94.4676 299.954 94.5695 299.877 94.6445C299.8 94.7194 299.698 94.7613 299.59 94.7613ZM220.988 93.9598H299.189V17.4835H220.988V93.9598Z" fill="#D1D3D4"/>
<path d="M299.59 80.0812H220.587V94.3606H299.59V80.0812Z" fill="white"/>
<path d="M299.591 94.7613H220.596C220.49 94.7613 220.388 94.7191 220.313 94.6439C220.238 94.5688 220.195 94.4668 220.195 94.3605V80.0811C220.194 80.0282 220.204 79.9755 220.224 79.9264C220.243 79.8772 220.273 79.8325 220.31 79.7951C220.348 79.7576 220.392 79.7282 220.442 79.7084C220.491 79.6887 220.543 79.6792 220.596 79.6804H299.599C299.652 79.6804 299.704 79.6907 299.753 79.7109C299.801 79.731 299.845 79.7605 299.883 79.7978C299.92 79.835 299.949 79.8791 299.97 79.9278C299.99 79.9764 300 80.0285 300 80.0811V94.3605C299.998 94.4676 299.954 94.5695 299.877 94.6445C299.801 94.7194 299.698 94.7613 299.591 94.7613ZM220.989 93.9598H299.19V80.4819H220.989V93.9598Z" fill="#D1D3D4"/>
<path d="M72.8579 91.1369H0.400879V35.6485L10.3024 25.551H72.8579V91.1369Z" fill="white"/>
<path d="M72.858 91.5378H0.400942C0.294606 91.5378 0.192624 91.4956 0.117433 91.4204C0.0422423 91.3453 0 91.2433 0 91.1371V35.6486C0.00185218 35.5449 0.0422399 35.4455 0.11331 35.3698L10.0148 25.281C10.0908 25.204 10.1942 25.1601 10.3024 25.1591H72.858C72.9643 25.1591 73.0663 25.2013 73.1415 25.2764C73.2167 25.3516 73.259 25.4535 73.259 25.5598V91.1458C73.259 91.198 73.2485 91.2497 73.2283 91.2978C73.208 91.346 73.1784 91.3896 73.141 91.4261C73.1037 91.4626 73.0594 91.4913 73.0108 91.5105C72.9622 91.5297 72.9102 91.539 72.858 91.5378ZM0.801883 90.7363H72.4222V25.9519H10.4768L0.801883 35.8142V90.7363Z" fill="#D1D3D4"/>
<path d="M66.6171 41.887H6.88556C6.77923 41.887 6.67724 41.8448 6.60205 41.7696C6.52686 41.6944 6.48462 41.5924 6.48462 41.4861C6.48462 41.3797 6.52686 41.2778 6.60205 41.2026C6.67724 41.1274 6.77923 41.0851 6.88556 41.0851H66.6171C66.7234 41.0851 66.8254 41.1274 66.9006 41.2026C66.9758 41.2778 67.018 41.3797 67.018 41.4861C67.018 41.5924 66.9758 41.6944 66.9006 41.7696C66.8254 41.8448 66.7234 41.887 66.6171 41.887Z" fill="#D1D3D4"/>
<path d="M66.6171 51.4181H6.88556C6.77923 51.4181 6.67724 51.3758 6.60205 51.3006C6.52686 51.2255 6.48462 51.1235 6.48462 51.0171C6.48462 50.9108 6.52686 50.8088 6.60205 50.7336C6.67724 50.6584 6.77923 50.6162 6.88556 50.6162H66.6171C66.7234 50.6162 66.8254 50.6584 66.9006 50.7336C66.9758 50.8088 67.018 50.9108 67.018 51.0171C67.018 51.1235 66.9758 51.2255 66.9006 51.3006C66.8254 51.3758 66.7234 51.4181 66.6171 51.4181Z" fill="#D1D3D4"/>
<path d="M66.6171 60.8796H6.88556C6.77923 60.8796 6.67724 60.8373 6.60205 60.7622C6.52686 60.687 6.48462 60.585 6.48462 60.4787C6.48462 60.3723 6.52686 60.2703 6.60205 60.1951C6.67724 60.12 6.77923 60.0777 6.88556 60.0777H66.6171C66.7234 60.0777 66.8254 60.12 66.9006 60.1951C66.9758 60.2703 67.018 60.3723 67.018 60.4787C67.018 60.585 66.9758 60.687 66.9006 60.7622C66.8254 60.8373 66.7234 60.8796 66.6171 60.8796Z" fill="#D1D3D4"/>
<path d="M66.6172 70.376H6.88566C6.77933 70.376 6.67734 70.3337 6.60215 70.2586C6.52696 70.1834 6.48472 70.0814 6.48472 69.9751C6.48353 69.9221 6.49309 69.8694 6.51281 69.8202C6.53254 69.771 6.56203 69.7264 6.5995 69.6889C6.63697 69.6514 6.68165 69.6219 6.73083 69.6022C6.78001 69.5825 6.83268 69.5729 6.88566 69.5741H66.6172C66.6706 69.5729 66.7237 69.5825 66.7733 69.6021C66.823 69.6217 66.8682 69.6511 66.9064 69.6884C66.9445 69.7258 66.9748 69.7704 66.9955 69.8196C67.0162 69.8688 67.0269 69.9217 67.0269 69.9751C67.0246 70.0822 66.9804 70.1841 66.9038 70.2591C66.8273 70.3341 66.7244 70.376 66.6172 70.376Z" fill="#D1D3D4"/>
<path d="M66.6172 79.8724H6.88566C6.83301 79.8724 6.78087 79.862 6.73223 79.8419C6.68358 79.8217 6.63938 79.7922 6.60215 79.755C6.56492 79.7177 6.53539 79.6735 6.51524 79.6249C6.49509 79.5762 6.48472 79.5241 6.48472 79.4715C6.48353 79.4185 6.49309 79.3658 6.51281 79.3166C6.53254 79.2674 6.56203 79.2228 6.5995 79.1853C6.63697 79.1478 6.68165 79.1183 6.73083 79.0986C6.78001 79.0789 6.83268 79.0693 6.88566 79.0705H66.6172C66.6706 79.0694 66.7237 79.0789 66.7733 79.0985C66.823 79.1181 66.8682 79.1475 66.9064 79.1848C66.9445 79.2222 66.9748 79.2668 66.9955 79.316C67.0162 79.3652 67.0269 79.4181 67.0269 79.4715C67.0246 79.5786 66.9804 79.6806 66.9038 79.7555C66.8273 79.8305 66.7244 79.8724 66.6172 79.8724Z" fill="#D1D3D4"/>
<path d="M10.2678 35.936H0.523158C0.425882 35.9217 0.336996 35.8729 0.272727 35.7986C0.208459 35.7242 0.173096 35.6292 0.173096 35.5309C0.173096 35.4326 0.208459 35.3376 0.272727 35.2632C0.336996 35.1889 0.425882 35.1401 0.523158 35.1258H9.86683L10.0237 25.429C10.0301 25.3233 10.0756 25.2238 10.1513 25.1497C10.227 25.0757 10.3275 25.0324 10.4334 25.0283C10.539 25.0328 10.6388 25.0779 10.7118 25.1542C10.7849 25.2305 10.8257 25.3321 10.8256 25.4377L10.6687 35.5353C10.6665 35.6408 10.6235 35.7415 10.5488 35.8162C10.4741 35.8909 10.3734 35.9338 10.2678 35.936Z" fill="#D1D3D4"/>
<path d="M154.572 39.665C154.572 39.665 173.329 41.6427 178.279 49.7625C183.23 57.8823 218.696 102.602 218.696 102.602L125.434 102.01C125.434 102.01 120.587 51.2523 127.177 40.4404C127.238 40.4404 128.528 36.8161 154.572 39.665Z" fill="#5A54F2"/>
<path d="M142.421 51.4787C143.595 53.0007 145.085 54.2506 146.788 55.1424C148.492 56.0343 150.368 56.5469 152.288 56.6451C152.789 56.6733 153.292 56.6083 153.77 56.4534C154.42 56.1697 154.974 55.7037 155.365 55.1117C157.108 52.7071 157.186 49.4836 156.742 46.5563C156.437 44.4915 155.87 42.3395 154.275 40.963C152.445 39.3425 149.786 39.2206 147.302 39.116C144.818 39.0115 139.205 38.3493 138.281 41.3551C137.471 44.1168 140.809 49.4749 142.421 51.4787Z" fill="#231F20"/>
<path d="M152.436 57.0371H152.279C150.307 56.9336 148.38 56.4042 146.631 55.4853C144.883 54.5663 143.355 53.2797 142.151 51.7139C140.408 49.5533 137.087 44.1429 137.976 41.2592C138.865 38.3754 143.563 38.5584 146.37 38.7065H147.381C150.092 38.7849 152.689 38.994 154.554 40.6493C156.419 42.3047 156.89 44.7267 157.169 46.4691C157.736 50.2415 157.247 53.2124 155.722 55.3034C155.299 55.9575 154.693 56.4727 153.979 56.7845C153.484 56.9609 152.961 57.0465 152.436 57.0371ZM142.718 51.2347C143.855 52.7182 145.302 53.9368 146.958 54.8063C148.613 55.6758 150.438 56.1753 152.305 56.2704C152.763 56.2969 153.221 56.2378 153.656 56.0962C154.237 55.8428 154.731 55.4248 155.077 54.8939C156.48 52.9685 156.916 50.1805 156.385 46.6172C156.141 44.988 155.626 42.6619 154.04 41.2592C152.454 39.8565 149.917 39.5864 147.346 39.5167H146.317C143.703 39.386 139.423 39.1682 138.7 41.5293C137.906 44.1429 141.14 49.3093 142.735 51.287L142.718 51.2347Z" fill="#231F20"/>
<path d="M157.98 20.6983C158.23 19.8673 158.649 19.0965 159.209 18.4331C159.498 18.1094 159.879 17.8823 160.302 17.7826C160.724 17.6829 161.167 17.7153 161.571 17.8755C161.854 18.0406 162.093 18.2734 162.265 18.5531C162.437 18.8329 162.537 19.1508 162.556 19.4786C162.594 20.1329 162.487 20.7876 162.242 21.3953C161.87 22.5522 161.228 23.6036 160.368 24.462C159.938 24.8911 159.425 25.2271 158.859 25.4489C158.294 25.6708 157.689 25.7738 157.082 25.7514" fill="white"/>
<path d="M157.335 26.1522H157.056C156.965 26.1433 156.881 26.0991 156.822 26.029C156.763 25.959 156.735 25.8687 156.742 25.7776C156.741 25.7313 156.751 25.6855 156.77 25.6433C156.789 25.601 156.816 25.5633 156.851 25.5327C156.886 25.5021 156.927 25.4794 156.971 25.466C157.015 25.4526 157.062 25.449 157.108 25.4552C157.666 25.4743 158.223 25.379 158.743 25.1752C159.263 24.9715 159.736 24.6635 160.132 24.2703C160.936 23.4423 161.534 22.4364 161.876 21.3343C162.097 20.7809 162.201 20.1875 162.181 19.5919C162.166 19.3212 162.085 19.0583 161.945 18.826C161.805 18.5936 161.611 18.399 161.379 18.2589C161.042 18.1295 160.673 18.1078 160.324 18.1967C159.974 18.2857 159.66 18.4809 159.426 18.7555C158.897 19.3818 158.506 20.1119 158.276 20.8987C158.244 20.9853 158.178 21.0556 158.094 21.094C158.01 21.1324 157.914 21.1358 157.827 21.1034C157.74 21.0711 157.67 21.0056 157.632 20.9215C157.593 20.8374 157.59 20.7414 157.622 20.6548C157.883 19.7751 158.329 18.9613 158.93 18.2676C159.269 17.8908 159.717 17.6283 160.212 17.516C160.706 17.4037 161.224 17.4471 161.693 17.6403C162.026 17.8333 162.308 18.1048 162.513 18.4312C162.718 18.7577 162.84 19.1291 162.869 19.5134C162.91 20.2212 162.794 20.9291 162.529 21.587C162.144 22.796 161.474 23.8954 160.577 24.7931C159.705 25.6366 158.548 26.1217 157.335 26.1522Z" fill="#231F20"/>
<path d="M153.412 32.2507L154.441 42.5225C154.441 42.5225 153.944 48.3597 147.52 47.201C145.626 46.8385 143.836 46.0595 142.281 44.9203C140.725 43.7811 139.442 42.3104 138.525 40.6145C138.525 40.6145 138.769 22.1968 138.76 22.1881C138.76 21.4388 140.286 18.86 139.554 12.3519C141.755 12.1248 143.884 11.442 145.806 10.3471C147.729 9.25206 149.402 7.76887 150.719 5.99197C150.719 5.99197 153.7 9.66855 154.955 10.8011C155.941 11.6519 156.819 12.6204 157.57 13.6849C159.548 16.6732 159.479 21.5259 158.999 25.0109C158.625 27.8162 156.968 32.3117 153.412 32.2507Z" fill="white"/>
<path d="M149.124 47.7412C148.563 47.7377 148.003 47.6852 147.451 47.5844C145.489 47.2221 143.636 46.421 142.028 45.2411C140.421 44.0613 139.101 42.5333 138.168 40.7714C138.14 40.7174 138.125 40.6578 138.124 40.5972C138.124 40.5972 138.368 22.3014 138.368 22.1794C138.384 21.8393 138.455 21.5039 138.577 21.1862C139.401 18.3287 139.597 15.3272 139.153 12.3868C139.146 12.281 139.177 12.1761 139.24 12.0906C139.31 12.0118 139.406 11.9595 139.51 11.9425C141.65 11.7138 143.72 11.0473 145.592 9.98466C147.463 8.922 149.096 7.48585 150.388 5.76552C150.425 5.71508 150.474 5.67409 150.53 5.64584C150.586 5.61759 150.648 5.60287 150.71 5.60287C150.773 5.60287 150.835 5.61759 150.891 5.64584C150.947 5.67409 150.996 5.71508 151.033 5.76552C151.033 5.76552 154.005 9.42467 155.217 10.5311C156.24 11.3952 157.151 12.3845 157.927 13.4759C160.246 16.9608 159.74 22.737 159.418 25.0458C159.026 27.7988 157.422 32.3728 153.848 32.6516L154.833 42.4964C154.665 44.1214 153.867 45.6161 152.61 46.6609C151.601 47.3992 150.374 47.7794 149.124 47.7412ZM138.926 40.51C139.823 42.1278 141.063 43.5294 142.56 44.6162C144.057 45.703 145.774 46.4485 147.59 46.8003C148.358 46.9991 149.16 47.0336 149.942 46.9014C150.725 46.7693 151.471 46.4736 152.131 46.0336C153.192 45.1312 153.874 43.8618 154.04 42.479L153.011 32.2508C153.005 32.1368 153.043 32.0248 153.116 31.9372C153.198 31.8583 153.307 31.8145 153.421 31.8152C156.733 31.911 158.258 27.4591 158.651 24.8454C158.964 22.6238 159.461 17.1089 157.282 13.8244C156.535 12.7807 155.656 11.8378 154.667 11.019C153.279 9.60319 151.964 8.11725 150.728 6.56705C148.072 9.91143 144.211 12.0821 139.972 12.6134C140.362 15.5308 140.142 18.4974 139.327 21.3256C139.24 21.5682 139.178 21.8194 139.144 22.0749C139.144 22.0749 139.161 22.1794 138.926 40.51Z" fill="#231F20"/>
<path d="M153.761 35.6224C152.074 35.9222 150.337 35.741 148.749 35.0996C145.088 33.8189 144.879 31.3272 144.879 31.3272C144.879 31.3272 147.956 33.2613 153.412 32.1985L153.761 35.6224Z" fill="#231F20"/>
<path d="M152.27 36.1365C151.027 36.1169 149.796 35.8902 148.627 35.4656C144.766 34.1152 144.504 31.4667 144.496 31.3796C144.492 31.3092 144.507 31.2392 144.539 31.1764C144.571 31.1137 144.619 31.0606 144.679 31.0224C144.74 30.9837 144.811 30.9631 144.884 30.9631C144.956 30.9631 145.027 30.9837 145.088 31.0224C145.088 31.0224 148.122 32.8607 153.342 31.8936C153.447 31.877 153.553 31.902 153.639 31.9633C153.682 31.9952 153.718 32.0356 153.745 32.0821C153.772 32.1285 153.789 32.18 153.796 32.2334L154.136 35.5441C154.154 35.6143 154.152 35.6881 154.13 35.7573C154.109 35.8265 154.068 35.8884 154.014 35.9361C153.937 35.9982 153.842 36.0321 153.743 36.0319C153.256 36.1091 152.764 36.1441 152.27 36.1365ZM145.498 32.0504C145.848 32.7061 146.329 33.2832 146.91 33.7462C147.492 34.2092 148.162 34.5482 148.88 34.7425C150.302 35.2818 151.832 35.4701 153.342 35.2914L153.072 32.6777C150.538 33.1736 147.916 32.9564 145.498 32.0504Z" fill="#231F20"/>
<path d="M148.113 17.8669C148.113 17.8669 151.913 22.4669 151.216 23.3992C150.518 24.3314 148.261 23.9916 148.261 23.9916" fill="white"/>
<path d="M149.194 24.4097C148.861 24.4062 148.53 24.383 148.2 24.34C148.1 24.3209 148.011 24.2643 147.951 24.1817C147.891 24.0992 147.865 23.9969 147.878 23.8957C147.895 23.7945 147.951 23.7041 148.034 23.6438C148.117 23.5835 148.221 23.5582 148.322 23.5733C148.845 23.6518 150.449 23.7476 150.937 23.1377C151.155 22.7108 149.717 20.3411 147.843 18.0759C147.778 17.9973 147.747 17.8963 147.757 17.795C147.767 17.6937 147.816 17.6004 147.895 17.5357C147.974 17.471 148.075 17.4402 148.176 17.45C148.277 17.4598 148.371 17.5095 148.435 17.588C149.926 19.3915 152.314 22.5714 151.547 23.5995C151.239 23.9 150.868 24.1286 150.461 24.2687C150.054 24.4088 149.621 24.457 149.194 24.4097Z" fill="#231F20"/>
<path d="M154.003 19.1577C154.313 19.1162 154.501 18.6068 154.423 18.02C154.344 17.4331 154.029 16.991 153.719 17.0325C153.409 17.0739 153.221 17.5833 153.299 18.1702C153.378 18.757 153.693 19.1992 154.003 19.1577Z" fill="#231F20"/>
<path d="M144.867 18.9183C145.18 18.9147 145.428 18.4317 145.421 17.8397C145.415 17.2476 145.155 16.7706 144.842 16.7743C144.53 16.7779 144.281 17.2609 144.288 17.8529C144.295 18.445 144.555 18.922 144.867 18.9183Z" fill="#231F20"/>
<path d="M140.87 19.4264C140.641 18.5462 140.251 17.7161 139.719 16.9782C139.415 16.5568 139.014 16.2143 138.55 15.9794C138.086 15.7445 137.572 15.6239 137.052 15.6278C136.732 15.6399 136.419 15.7245 136.137 15.8755C135.854 16.0265 135.61 16.2397 135.422 16.4991C135.195 16.873 135.052 17.2923 135.004 17.7275C134.673 20.0101 135.431 22.9549 137.619 24.1659C137.982 24.3941 138.402 24.5152 138.83 24.5152C139.259 24.5152 139.679 24.3941 140.042 24.1659" fill="white"/>
<path d="M138.944 24.8803C138.41 24.8691 137.886 24.7285 137.418 24.4708C135.135 23.2162 134.307 20.1146 134.664 17.6752C134.729 17.1862 134.905 16.7184 135.178 16.3074C135.394 16.0024 135.676 15.751 136.004 15.5727C136.332 15.3945 136.697 15.2941 137.07 15.2793C137.647 15.2734 138.217 15.4055 138.732 15.6647C139.248 15.9238 139.694 16.3025 140.033 16.7691C140.593 17.5369 141.004 18.4028 141.245 19.3218C141.258 19.3659 141.263 19.4121 141.258 19.4579C141.253 19.5037 141.24 19.5482 141.218 19.5887C141.196 19.6292 141.166 19.6649 141.131 19.6939C141.095 19.7229 141.054 19.7445 141.009 19.7574C140.922 19.7818 140.828 19.7708 140.748 19.7269C140.668 19.6829 140.609 19.6094 140.582 19.5222C140.363 18.6858 139.991 17.8971 139.484 17.196C139.217 16.8166 138.862 16.5074 138.449 16.295C138.036 16.0826 137.578 15.9733 137.113 15.9763C136.847 15.9837 136.586 16.0519 136.351 16.1757C136.115 16.2996 135.911 16.4758 135.754 16.6907C135.554 17.0189 135.431 17.3884 135.396 17.771C135.074 19.9665 135.789 22.7632 137.793 23.8696C138.096 24.0667 138.448 24.1766 138.809 24.1873C139.17 24.1981 139.527 24.1093 139.842 23.9306C139.877 23.8951 139.919 23.8675 139.966 23.8497C140.012 23.8319 140.062 23.8243 140.112 23.8275C140.162 23.8307 140.21 23.8445 140.254 23.8681C140.298 23.8917 140.337 23.9244 140.367 23.9641C140.397 24.0038 140.419 24.0495 140.43 24.0982C140.441 24.1469 140.441 24.1974 140.431 24.2462C140.421 24.2951 140.4 24.3412 140.371 24.3815C140.341 24.4217 140.303 24.4551 140.26 24.4795C139.879 24.7576 139.415 24.8988 138.944 24.8803Z" fill="#231F20"/>
<path d="M176.467 98.3246C176.36 98.3241 176.258 98.2864 176.176 98.2179C176.095 98.1494 176.041 98.0546 176.022 97.9499C173.739 83.6879 169.363 56.5144 169.163 55.6954C169.148 55.6388 169.145 55.5799 169.154 55.5221C169.162 55.4642 169.182 55.4087 169.212 55.3585C169.242 55.3083 169.281 55.2645 169.328 55.2297C169.375 55.1948 169.428 55.1695 169.485 55.1553C169.601 55.126 169.723 55.1435 169.826 55.2038C169.929 55.2641 170.003 55.3625 170.034 55.4776C170.296 56.5405 176.641 96.1204 176.911 97.8018C176.929 97.9195 176.899 98.0394 176.829 98.1356C176.759 98.2318 176.654 98.2966 176.536 98.3158L176.467 98.3246Z" fill="#231F20"/>
<path d="M148.592 70.4193L137.314 70.5325L136.956 66.4465L147.782 66.3158L148.592 70.4193Z" fill="white"/>
<path d="M274.714 80.0811V170.88C274.713 173.07 274.281 175.238 273.441 177.261C272.602 179.284 271.372 181.121 269.822 182.669C268.272 184.217 266.432 185.444 264.408 186.281C262.383 187.118 260.214 187.548 258.023 187.547H38.194C36.004 187.548 33.8352 187.118 31.8118 186.281C29.7883 185.443 27.9497 184.216 26.4011 182.668C24.8526 181.12 23.6245 179.282 22.7869 177.26C21.9494 175.237 21.5189 173.069 21.52 170.88V80.0811C21.5189 77.8917 21.9493 75.7235 22.7867 73.7004C23.6242 71.6773 24.8522 69.839 26.4006 68.2904C27.9491 66.7419 29.7876 65.5134 31.8111 64.6753C33.8346 63.8372 36.0036 63.4058 38.194 63.4058H258.023C262.448 63.4058 266.693 65.1624 269.823 68.2894C272.953 71.4163 274.712 75.6577 274.714 80.0811Z" fill="white"/>
<path d="M258.023 188H38.1941C33.6531 187.995 29.2994 186.19 26.0884 182.981C22.8775 179.771 21.0715 175.419 21.0669 170.88V80.0811C21.0692 75.5406 22.8741 71.1866 26.0853 67.9752C29.2966 64.7638 33.6516 62.9574 38.1941 62.9528H258.023C262.567 62.9574 266.922 64.7635 270.135 67.9747C273.348 71.1858 275.155 75.5398 275.159 80.0811V170.88C275.152 175.42 273.344 179.772 270.132 182.981C266.92 186.19 262.565 187.995 258.023 188ZM38.1941 63.8502C33.8904 63.8571 29.7651 65.5696 26.7227 68.6123C23.6803 71.6549 21.9693 75.7793 21.9647 80.0811V170.88C21.9716 175.18 23.684 179.301 26.7263 182.341C29.7687 185.38 33.8927 187.089 38.1941 187.094H258.023C262.326 187.092 266.452 185.383 269.497 182.344C272.541 179.304 274.254 175.181 274.261 170.88V80.0811C274.257 75.7778 272.544 71.6521 269.5 68.6092C266.456 65.5663 262.328 63.8548 258.023 63.8502H38.1941Z" fill="#231F20"/>
<path d="M274.714 80.0811V86.1797H21.52V80.0811C21.5189 77.8917 21.9493 75.7235 22.7867 73.7004C23.6242 71.6773 24.8522 69.839 26.4006 68.2904C27.9491 66.7419 29.7876 65.5134 31.8111 64.6753C33.8346 63.8372 36.0036 63.4058 38.194 63.4058H258.023C262.448 63.4058 266.693 65.1624 269.823 68.2894C272.953 71.4163 274.712 75.6577 274.714 80.0811Z" fill="white"/>
<path d="M274.715 86.6763H21.5201C21.3999 86.6763 21.2846 86.6285 21.1996 86.5436C21.1146 86.4586 21.0669 86.3434 21.0669 86.2232V80.1247C21.0692 75.5842 22.8741 71.2302 26.0853 68.0187C29.2966 64.8073 33.6516 63.001 38.1941 62.9963H258.023C262.559 63.0009 266.908 64.801 270.12 68.0028C273.331 71.2045 275.143 75.5473 275.159 80.0811V86.1797C275.167 86.2423 275.161 86.3057 275.142 86.3658C275.123 86.4259 275.091 86.4813 275.049 86.5282C275.007 86.5752 274.955 86.6127 274.898 86.6382C274.84 86.6637 274.778 86.6767 274.715 86.6763ZM21.9472 85.8051H274.261V80.0811C274.257 75.7778 272.544 71.6521 269.5 68.6092C266.456 65.5663 262.328 63.8547 258.023 63.8501H38.1941C33.8904 63.8571 29.7651 65.5696 26.7227 68.6122C23.6803 71.6549 21.9693 75.7793 21.9647 80.0811L21.9472 85.8051Z" fill="#231F20"/>
<path d="M206.798 144.299C205.35 144.3 203.925 143.943 202.648 143.261C201.37 142.58 200.281 141.593 199.477 140.39C198.672 139.187 198.177 137.804 198.034 136.363C197.892 134.923 198.108 133.47 198.662 132.133C199.216 130.796 200.091 129.616 201.211 128.698C202.33 127.78 203.659 127.152 205.079 126.869C206.499 126.587 207.967 126.659 209.352 127.08C210.738 127.5 211.998 128.256 213.022 129.279C214.252 130.51 215.09 132.078 215.43 133.784C215.769 135.491 215.595 137.259 214.929 138.867C214.263 140.474 213.135 141.848 211.688 142.815C210.24 143.782 208.539 144.299 206.798 144.299ZM206.798 129.323C205.37 129.322 203.986 129.817 202.882 130.722C201.778 131.627 201.022 132.887 200.744 134.287C200.465 135.687 200.681 137.14 201.354 138.399C202.027 139.658 203.116 140.644 204.436 141.19C205.755 141.736 207.223 141.808 208.589 141.393C209.956 140.979 211.136 140.103 211.929 138.916C212.721 137.729 213.078 136.303 212.937 134.883C212.796 133.463 212.167 132.135 211.156 131.126C210.586 130.552 209.907 130.096 209.159 129.787C208.411 129.477 207.608 129.319 206.798 129.323Z" fill="white"/>
<path d="M220.3 150.738C220.123 150.74 219.947 150.705 219.783 150.636C219.62 150.567 219.472 150.465 219.35 150.337L211.157 141.747C211.023 141.626 210.916 141.48 210.841 141.316C210.767 141.153 210.727 140.975 210.724 140.796C210.721 140.616 210.755 140.437 210.825 140.272C210.894 140.106 210.997 139.956 211.126 139.831C211.256 139.707 211.41 139.611 211.579 139.549C211.748 139.486 211.928 139.46 212.107 139.47C212.287 139.481 212.462 139.528 212.623 139.61C212.783 139.691 212.925 139.804 213.039 139.943L221.241 148.533C221.42 148.717 221.541 148.949 221.588 149.201C221.635 149.453 221.606 149.713 221.506 149.949C221.405 150.185 221.237 150.386 221.022 150.526C220.808 150.666 220.556 150.74 220.3 150.738Z" fill="white"/>
<path d="M41.3406 78.6001C42.8666 78.6001 44.1037 77.3636 44.1037 75.8383C44.1037 74.313 42.8666 73.0765 41.3406 73.0765C39.8147 73.0765 38.5776 74.313 38.5776 75.8383C38.5776 77.3636 39.8147 78.6001 41.3406 78.6001Z" fill="#5A54F2"/>
<path d="M51.0155 78.6001C52.5414 78.6001 53.7785 77.3636 53.7785 75.8383C53.7785 74.313 52.5414 73.0765 51.0155 73.0765C49.4895 73.0765 48.2524 74.313 48.2524 75.8383C48.2524 77.3636 49.4895 78.6001 51.0155 78.6001Z" fill="#D1D3D4"/>
<path d="M60.6903 78.6001C62.2162 78.6001 63.4533 77.3636 63.4533 75.8383C63.4533 74.313 62.2162 73.0765 60.6903 73.0765C59.1643 73.0765 57.9272 74.313 57.9272 75.8383C57.9272 77.3636 59.1643 78.6001 60.6903 78.6001Z" fill="#D1D3D4"/>
<path d="M147.825 94.2909C147.825 94.2909 154.633 96.7826 156.629 96.5299C158.625 96.2773 164.944 93.4632 165.685 94.1253C166.425 94.7875 166.19 96.617 159.583 99.6053C159.583 99.6053 176.955 108.823 175.952 109.816C174.95 110.809 167.402 107.412 160.664 104.667C160.664 104.667 157.178 110.565 152.026 109.485C146.875 108.405 143.72 103.84 143.72 103.84" fill="white"/>
<path d="M175.342 110.391C173.669 110.391 170.112 108.997 163.802 106.383L160.856 105.164C160.054 106.383 156.725 110.87 151.983 109.877C146.753 108.779 143.554 104.258 143.424 104.066C143.386 104.024 143.357 103.974 143.34 103.92C143.322 103.865 143.317 103.808 143.323 103.752C143.33 103.695 143.349 103.641 143.378 103.592C143.407 103.543 143.447 103.501 143.493 103.468C143.54 103.436 143.593 103.414 143.649 103.404C143.705 103.393 143.763 103.395 143.818 103.409C143.873 103.422 143.925 103.448 143.97 103.483C144.014 103.518 144.051 103.562 144.077 103.613C144.077 103.656 147.215 108.065 152.14 109.102C157.064 110.138 160.324 104.528 160.359 104.467C160.408 104.384 160.486 104.322 160.577 104.292C160.668 104.261 160.767 104.265 160.856 104.301L164.107 105.643C168.221 107.385 174.305 109.868 175.543 109.616C174.532 108.387 166.765 103.848 159.435 99.9538C159.37 99.9205 159.315 99.8691 159.278 99.8058C159.241 99.7425 159.223 99.6699 159.226 99.5966C159.228 99.522 159.25 99.4494 159.29 99.3864C159.33 99.3235 159.386 99.2726 159.453 99.2394C164.743 96.8348 165.502 95.3798 165.554 94.8832C165.574 94.8014 165.57 94.7157 165.544 94.6357C165.518 94.5556 165.47 94.4845 165.406 94.4302C164.97 94.2472 162.39 95.1446 160.682 95.737C159.374 96.237 158.031 96.6389 156.664 96.9393C154.589 97.2094 147.947 94.77 147.668 94.6741C147.569 94.6369 147.489 94.562 147.445 94.4657C147.401 94.3693 147.396 94.2595 147.433 94.1601C147.451 94.1113 147.478 94.0665 147.513 94.0282C147.548 93.9899 147.59 93.9589 147.637 93.937C147.684 93.9152 147.735 93.9028 147.787 93.9007C147.838 93.8987 147.89 93.9068 147.939 93.9249C149.813 94.6044 155.016 96.3382 156.568 96.1465C157.891 95.8575 159.191 95.4672 160.455 94.9791C163.854 93.8029 165.414 93.3412 165.972 93.8378C166.134 93.9796 166.257 94.1606 166.329 94.3635C166.401 94.5665 166.419 94.7844 166.382 94.9965C166.182 96.3295 164.212 97.889 160.533 99.6401C165.763 102.428 176.222 108.178 176.44 109.633C176.455 109.719 176.449 109.807 176.423 109.89C176.398 109.973 176.353 110.05 176.292 110.112C176.161 110.22 176.009 110.3 175.845 110.348C175.682 110.396 175.511 110.41 175.342 110.391Z" fill="#231F20"/>
<path d="M127.238 40.4404C127.238 40.4404 81.3737 61.6809 81.6351 74.6273C81.9664 91.1806 139.972 107.778 139.972 107.778L148.958 90.5098L111.95 72.8152L139.31 57.9085L127.238 40.4404Z" fill="#5A54F2"/>
<path d="M196.235 60.2433C193.733 59.433 190.761 58.919 188.652 60.4959C187.666 61.3448 186.886 62.405 186.368 63.5975C185.218 65.8737 184.225 68.2256 183.396 70.637C183.178 71.2643 183.038 72.1007 183.579 72.4753C184.119 72.8499 185.078 72.2052 185.505 71.517C186.262 70.2922 186.848 68.9704 187.248 67.5877C186.307 69.5602 185.644 71.6537 185.278 73.8083C185.2 74.0697 185.2 74.3484 185.278 74.6098C185.412 74.8267 185.625 74.9839 185.871 75.0488C186.118 75.1136 186.38 75.0812 186.603 74.9583C187.041 74.6889 187.394 74.3026 187.623 73.8431C188.702 72.0215 189.579 70.0875 190.238 68.0756C189.479 70.1434 189.061 72.3208 189 74.5227C188.982 74.7076 189.004 74.8942 189.065 75.0699C189.125 75.2457 189.222 75.4066 189.349 75.542C189.525 75.6548 189.733 75.7081 189.941 75.694C190.15 75.6799 190.349 75.5991 190.508 75.4636C190.812 75.177 191.047 74.8256 191.197 74.4356L193.811 68.9468C193.234 70.9899 192.915 73.0973 192.861 75.2197C192.839 75.395 192.866 75.5731 192.94 75.7337C193.236 76.2913 194.099 75.9166 194.474 75.4026C195.036 74.5246 195.429 73.5496 195.633 72.5276C196.348 69.8355 196.967 67.0911 197.786 64.4339C198.57 62.2645 198.806 61.0797 196.235 60.2433Z" fill="white"/>
<path d="M193.515 76.4046H193.437C193.28 76.3994 193.128 76.3521 192.996 76.2678C192.864 76.1835 192.758 76.0652 192.687 75.9254C192.585 75.699 192.543 75.4498 192.565 75.2023C192.591 74.1729 192.679 73.1459 192.827 72.1269L191.641 74.6099C191.46 75.0512 191.183 75.4469 190.831 75.7686C190.604 75.9629 190.32 76.0769 190.022 76.0927C189.724 76.1084 189.429 76.0251 189.183 75.8557C189.012 75.6837 188.879 75.4778 188.792 75.2513C188.704 75.0248 188.666 74.7825 188.678 74.5402C188.666 73.9143 188.698 73.2884 188.774 72.667C188.53 73.1375 188.268 73.5992 187.998 74.0523C187.732 74.5785 187.321 75.0171 186.813 75.3156C186.628 75.4065 186.428 75.4596 186.223 75.4715C186.017 75.4835 185.812 75.4542 185.618 75.3853C185.471 75.332 185.336 75.2499 185.22 75.1437C185.105 75.0375 185.012 74.9093 184.947 74.7667C184.827 74.4371 184.808 74.0788 184.895 73.7386C184.965 73.3466 185.043 72.9545 185.122 72.5625C184.873 72.7782 184.573 72.9253 184.25 72.9894C184.089 73.025 183.922 73.0272 183.76 72.9957C183.598 72.9643 183.445 72.8998 183.309 72.8064C182.899 72.5189 182.507 71.8916 182.977 70.5151C183.811 68.0844 184.813 65.7147 185.976 63.4233C186.513 62.1694 187.333 61.057 188.373 60.1736C190.186 58.8145 192.792 58.7187 196.322 59.8687C199.381 60.8619 198.849 62.5695 198.231 64.5559C197.682 66.2984 197.22 68.1454 196.775 69.914C196.548 70.7852 196.322 71.7261 196.078 72.6235C195.861 73.6949 195.447 74.717 194.858 75.6379C194.701 75.8534 194.5 76.0332 194.269 76.1653C194.037 76.2975 193.78 76.379 193.515 76.4046ZM193.916 68.5636C193.962 68.5552 194.01 68.5552 194.056 68.5636C194.148 68.6022 194.223 68.6727 194.268 68.7623C194.313 68.8518 194.324 68.9544 194.3 69.0514C193.734 71.0611 193.417 73.1328 193.358 75.2197C193.339 75.3263 193.339 75.4355 193.358 75.5421C193.358 75.5421 193.402 75.5944 193.463 75.6031C193.763 75.5559 194.034 75.3972 194.221 75.1587C194.752 74.3186 195.124 73.3885 195.319 72.4144C195.564 71.5432 195.79 70.6109 196.017 69.7136C196.461 67.9276 196.888 66.0893 197.481 64.312C198.161 62.1252 198.283 61.3324 196.078 60.6093C192.809 59.5464 190.456 59.6161 188.861 60.8009C187.922 61.6147 187.18 62.6304 186.691 63.7718C185.553 66.0274 184.566 68.3558 183.736 70.7416C183.622 71.0727 183.405 71.8655 183.736 72.1269C183.783 72.1604 183.837 72.1833 183.895 72.1938C183.952 72.2043 184.011 72.2023 184.067 72.1879C184.5 72.0255 184.864 71.7175 185.095 71.3166C185.305 70.9769 185.505 70.6284 185.688 70.2712C186.008 69.2984 186.39 68.3469 186.83 67.4223C186.875 67.3328 186.952 67.263 187.045 67.2261C187.138 67.1892 187.241 67.1877 187.335 67.2219C187.429 67.259 187.505 67.3297 187.548 67.4201C187.592 67.5104 187.6 67.6137 187.571 67.7098C187.282 68.7021 186.9 69.6647 186.429 70.5848C186.072 71.663 185.798 72.7669 185.61 73.8867C185.557 74.0718 185.557 74.268 185.61 74.4531C185.631 74.4985 185.661 74.539 185.698 74.572C185.736 74.605 185.78 74.6298 185.828 74.6447C186.006 74.7183 186.207 74.7183 186.385 74.6447C186.762 74.4149 187.064 74.0824 187.257 73.6864C188.333 71.8908 189.21 69.9831 189.872 67.9973C189.888 67.9479 189.913 67.9022 189.947 67.8627C189.98 67.8233 190.021 67.7909 190.068 67.7674C190.114 67.7439 190.164 67.7298 190.216 67.7259C190.268 67.7219 190.32 67.7283 190.369 67.7446C190.469 67.7767 190.552 67.8467 190.601 67.9395C190.65 68.0324 190.66 68.1407 190.63 68.2412C189.876 70.2646 189.464 72.3991 189.41 74.5576C189.381 74.8154 189.453 75.0743 189.61 75.2807C189.715 75.3349 189.834 75.3557 189.951 75.3401C190.068 75.3245 190.177 75.2734 190.264 75.1936C190.519 74.9482 190.718 74.6511 190.848 74.3224L193.463 68.8249C193.49 68.73 193.551 68.6486 193.635 68.5969C193.719 68.5453 193.819 68.5271 193.916 68.5461V68.5636Z" fill="#231F20"/>
<path d="M154.502 25.3594C154.502 25.3594 147.764 33.8365 142.848 24.4882L154.502 25.3594Z" fill="white"/>
<path d="M148.418 29.2538H147.947C145.829 29.0534 143.999 27.5113 142.5 24.645C142.456 24.5532 142.448 24.448 142.479 24.3509C142.51 24.2538 142.577 24.1721 142.665 24.1223C142.71 24.0982 142.76 24.0834 142.811 24.0787C142.862 24.0741 142.913 24.0796 142.962 24.095C143.01 24.1104 143.056 24.1354 143.095 24.1685C143.133 24.2017 143.165 24.2422 143.188 24.2878C144.557 26.9015 146.178 28.3129 148.017 28.4871C151.251 28.7921 154.171 25.1678 154.206 25.1329C154.237 25.0934 154.276 25.0605 154.32 25.0361C154.364 25.0117 154.413 24.9962 154.463 24.9905C154.513 24.9849 154.564 24.9891 154.613 25.0031C154.661 25.0171 154.706 25.0405 154.746 25.0719C154.785 25.1034 154.818 25.1423 154.843 25.1865C154.867 25.2307 154.883 25.2792 154.888 25.3294C154.894 25.3795 154.89 25.4303 154.876 25.4788C154.862 25.5273 154.838 25.5726 154.807 25.6121C154.685 25.7515 151.861 29.2538 148.418 29.2538Z" fill="#231F20"/>
<path d="M208.184 56.5842C208.131 56.5857 208.077 56.5756 208.027 56.5546C207.978 56.5335 207.933 56.502 207.897 56.4622C207.822 56.387 207.78 56.2852 207.78 56.179C207.78 56.0729 207.822 55.971 207.897 55.8959C212.604 51.3829 213.684 41.8343 207.784 34.8035C201.682 27.5723 191.999 26.1696 186.743 25.978C185.601 25.978 184.433 25.9257 183.256 25.917C178.027 25.917 172.684 25.8647 168.552 22.7544C166.155 20.9597 164.508 17.3092 162.765 13.4497C160.507 8.4663 158.18 3.30864 154.214 2.70749C153.527 2.67518 152.84 2.79106 152.201 3.04727C151.533 3.38821 150.779 3.52539 150.034 3.44175C149.289 3.3581 148.584 3.05732 148.008 2.5768L147.721 2.39385C144.295 0.241917 139.632 0.276767 135.222 2.48968C129.443 5.39958 126.863 12.0122 126.375 17.2308C125.808 23.3294 127.308 29.3583 128.763 35.2042C128.79 35.3071 128.774 35.4162 128.72 35.5077C128.666 35.5991 128.578 35.6655 128.476 35.6921C128.372 35.716 128.263 35.6983 128.171 35.643C128.08 35.5877 128.014 35.4991 127.987 35.3959C126.514 29.489 124.998 23.3817 125.573 17.1524C126.218 10.1826 129.783 4.32797 134.865 1.77528C139.519 -0.568323 144.452 -0.594459 148.148 1.71429L148.453 1.90596C148.926 2.3181 149.514 2.57508 150.137 2.64209C150.761 2.7091 151.39 2.5829 151.939 2.28059C152.695 1.97985 153.508 1.85473 154.319 1.91467C158.677 2.57681 161.135 7.93485 163.48 13.1187C165.179 16.8824 166.783 20.437 169.014 22.1184C172.937 25.0632 178.175 25.0893 183.239 25.1154C184.424 25.1154 185.601 25.1154 186.725 25.1764C192.103 25.3681 202.074 26.8143 208.35 34.2895C214.626 41.7646 213.371 51.714 208.402 56.4709C208.344 56.5315 208.268 56.5713 208.184 56.5842Z" fill="#231F20"/>
<path d="M107.156 75.2894C107.066 75.2897 106.978 75.2596 106.907 75.2039C106.836 75.1483 106.786 75.0703 106.765 74.9827C106.744 74.8951 106.753 74.8029 106.79 74.721C106.828 74.6391 106.892 74.5723 106.973 74.5315L137.026 58.9888C137.121 58.9424 137.231 58.9346 137.331 58.9671C137.432 58.9996 137.516 59.0698 137.566 59.163C137.592 59.2097 137.607 59.261 137.612 59.3138C137.617 59.3666 137.611 59.4199 137.595 59.4704C137.579 59.5209 137.552 59.5676 137.517 59.6076C137.483 59.6476 137.44 59.6801 137.392 59.7032L107.339 75.2459C107.281 75.2726 107.219 75.2874 107.156 75.2894Z" fill="#231F20"/>
<path d="M102.685 1.65405H64.8478V31.9118H102.685V1.65405Z" fill="white"/>
<path d="M102.685 32.3123H64.8478C64.7422 32.3101 64.6415 32.2671 64.5668 32.1924C64.4921 32.1178 64.4491 32.0171 64.4469 31.9115V1.65382C64.4469 1.54753 64.4891 1.44559 64.5643 1.37043C64.6395 1.29528 64.7415 1.25305 64.8478 1.25305H102.685C102.791 1.25305 102.893 1.29528 102.968 1.37043C103.043 1.44559 103.085 1.54753 103.085 1.65382V31.9115C103.083 32.0171 103.04 32.1178 102.966 32.1924C102.891 32.2671 102.79 32.3101 102.685 32.3123ZM65.2488 31.5108H102.284V2.05458H65.2488V31.5108Z" fill="#D1D3D4"/>
<path d="M64.6911 25.2809C64.6124 25.2808 64.5354 25.2576 64.4698 25.2141C64.4042 25.1706 64.3529 25.1087 64.3222 25.0363C64.2915 24.9638 64.2829 24.8839 64.2973 24.8066C64.3118 24.7292 64.3487 24.6578 64.4034 24.6013L76.7803 12.2125C77.1476 11.8454 77.5869 11.5582 78.0707 11.3691C78.5544 11.1799 79.072 11.0928 79.591 11.1132C80.11 11.1337 80.6192 11.2613 81.0865 11.4879C81.5538 11.7146 81.9691 12.0354 82.3063 12.4303L92.2078 24.0002C92.2808 24.0764 92.3216 24.1778 92.3216 24.2833C92.3216 24.3888 92.2808 24.4903 92.2078 24.5665C92.1684 24.602 92.1221 24.6292 92.0718 24.6463C92.0215 24.6634 91.9682 24.6702 91.9152 24.6661C91.8623 24.662 91.8106 24.6472 91.7636 24.6226C91.7165 24.598 91.6749 24.5641 91.6413 24.5229L81.7224 12.9704C81.46 12.6565 81.134 12.4018 80.7659 12.2231C80.3978 12.0444 79.996 11.9457 79.5869 11.9337C79.1775 11.9165 78.769 11.9852 78.3878 12.1352C78.0065 12.2852 77.6608 12.5134 77.373 12.8049L64.97 25.1938C64.8922 25.2585 64.7919 25.2898 64.6911 25.2809Z" fill="#D1D3D4"/>
<path d="M102.693 22.4146C102.637 22.4152 102.582 22.4038 102.531 22.3813C102.48 22.3587 102.434 22.3256 102.397 22.2839L97.1672 16.5948C96.8916 16.2942 96.5562 16.0544 96.1824 15.8908C95.8087 15.7273 95.4049 15.6436 94.9969 15.6452C94.5868 15.6435 94.1809 15.728 93.8056 15.8931C93.4302 16.0582 93.0937 16.3002 92.8179 16.6035L88.9828 20.7506C88.9473 20.7895 88.9045 20.821 88.8568 20.8434C88.8091 20.8657 88.7575 20.8785 88.7049 20.8809C88.6523 20.8834 88.5997 20.8754 88.5502 20.8575C88.5007 20.8396 88.4552 20.8122 88.4162 20.7767C88.3773 20.7412 88.3458 20.6985 88.3234 20.6508C88.301 20.6032 88.2883 20.5516 88.2858 20.499C88.2834 20.4464 88.2914 20.3938 88.3092 20.3443C88.3271 20.2948 88.3546 20.2493 88.3901 20.2104L92.199 16.0634C92.5521 15.6802 92.9805 15.3741 93.4575 15.1642C93.9344 14.9543 94.4496 14.8452 94.9708 14.8437C95.484 14.8495 95.9906 14.9599 96.4597 15.1681C96.9288 15.3763 97.3504 15.678 97.6989 16.0547L102.929 21.7351C102.983 21.7916 103.02 21.863 103.035 21.9403C103.049 22.0177 103.04 22.0975 103.01 22.17C102.979 22.2425 102.928 22.3043 102.862 22.3478C102.797 22.3913 102.72 22.4145 102.641 22.4146H102.693Z" fill="#D1D3D4"/>
<path d="M89.4884 10.0955C90.6437 10.0955 91.5802 9.15937 91.5802 8.00458C91.5802 6.84978 90.6437 5.91364 89.4884 5.91364C88.3331 5.91364 87.3965 6.84978 87.3965 8.00458C87.3965 9.15937 88.3331 10.0955 89.4884 10.0955Z" fill="white"/>
<path d="M89.4885 10.4701C88.9934 10.4718 88.5089 10.3266 88.0964 10.0529C87.6839 9.77924 87.3619 9.38934 87.1712 8.9326C86.9805 8.47586 86.9297 7.97284 87.0253 7.48723C87.1208 7.00162 87.3584 6.55528 87.7079 6.20471C88.0574 5.85415 88.5031 5.61514 88.9886 5.51796C89.4741 5.42077 89.9775 5.46978 90.4351 5.65877C90.8927 5.84776 91.2839 6.16823 91.5591 6.57961C91.8344 6.99099 91.9813 7.47477 91.9813 7.96968C91.9813 8.63132 91.719 9.266 91.2517 9.73467C90.7845 10.2033 90.1505 10.4678 89.4885 10.4701ZM89.4885 6.27949C89.1516 6.27777 88.8218 6.37617 88.541 6.56218C88.2601 6.74819 88.0409 7.01343 87.9112 7.32422C87.7815 7.635 87.7471 7.97731 87.8124 8.30767C87.8777 8.63804 88.0398 8.94155 88.278 9.17966C88.5162 9.41778 88.8199 9.57976 89.1504 9.64504C89.4809 9.71031 89.8233 9.67593 90.1343 9.54627C90.4452 9.41661 90.7105 9.19751 90.8966 8.9168C91.0827 8.63608 91.1812 8.30642 91.1794 7.96968C91.1703 7.52748 90.9881 7.10648 90.672 6.79701C90.3559 6.48753 89.931 6.31425 89.4885 6.31434V6.27949Z" fill="#D1D3D4"/>
<path d="M273.485 48.656L255.774 57.8736C255.51 58.0066 255.217 58.0703 254.921 58.0587C254.626 58.0471 254.338 57.9605 254.085 57.8072C253.832 57.6538 253.623 57.4387 253.476 57.1821C253.329 56.9255 253.25 56.6358 253.247 56.3402V37.8964C253.25 37.6008 253.329 37.3111 253.476 37.0545C253.623 36.7978 253.832 36.5827 254.085 36.4294C254.338 36.276 254.626 36.1895 254.921 36.1779C255.217 36.1663 255.51 36.23 255.774 36.363L273.485 45.5806C273.764 45.7292 273.998 45.9507 274.16 46.2216C274.323 46.4924 274.409 46.8024 274.409 47.1183C274.409 47.4342 274.323 47.7442 274.16 48.015C273.998 48.2859 273.764 48.5074 273.485 48.656Z" fill="white"/>
<path d="M254.972 58.4748C254.408 58.4725 253.867 58.2466 253.468 57.8465C253.069 57.4465 252.846 56.9049 252.846 56.3403V37.8964C252.845 37.5303 252.938 37.1701 253.117 36.8507C253.296 36.5313 253.555 36.2635 253.868 36.0734C254.181 35.8832 254.538 35.7771 254.904 35.7652C255.27 35.7534 255.633 35.8363 255.957 36.0058L273.669 45.2321C274.016 45.4108 274.308 45.6817 274.511 46.0153C274.715 46.3488 274.823 46.732 274.823 47.1227C274.823 47.5134 274.715 47.8966 274.511 48.2301C274.308 48.5636 274.016 48.8346 273.669 49.0132L255.957 58.2308C255.653 58.3879 255.315 58.4714 254.972 58.4748ZM254.972 36.5721C254.621 36.5721 254.284 36.7116 254.036 36.96C253.787 37.2083 253.648 37.5452 253.648 37.8964V56.3403C253.647 56.5689 253.705 56.794 253.817 56.9934C253.929 57.1929 254.091 57.3599 254.286 57.4784C254.482 57.5968 254.705 57.6625 254.934 57.6692C255.162 57.6759 255.389 57.6232 255.591 57.5164L273.294 48.2988C273.509 48.1859 273.69 48.0162 273.816 47.8081C273.941 47.6 274.008 47.3615 274.008 47.1183C274.008 46.8752 273.941 46.6366 273.816 46.4285C273.69 46.2204 273.509 46.0507 273.294 45.9378L255.591 36.7202C255.397 36.633 255.185 36.5942 254.972 36.607V36.5721Z" fill="#D1D3D4"/>
<path fill-rule="evenodd" clip-rule="evenodd" d="M149.007 147.398C149.032 147.389 149.057 147.379 149.082 147.369C149.13 147.351 149.178 147.332 149.226 147.313C149.248 147.304 149.27 147.295 149.293 147.286C149.343 147.265 149.394 147.245 149.446 147.223C149.46 147.217 149.476 147.21 149.491 147.204C149.539 147.184 149.585 147.164 149.632 147.144L149.673 147.126C149.728 147.102 149.783 147.078 149.838 147.053L149.881 147.034C149.936 147.008 149.992 146.983 150.047 146.957L150.084 146.94C150.141 146.913 150.199 146.885 150.256 146.858L150.28 146.846C150.338 146.817 150.398 146.788 150.457 146.758L150.464 146.755C150.525 146.724 150.585 146.693 150.647 146.662C152.474 145.712 154.112 144.406 155.456 142.808L155.457 142.807C155.477 142.785 155.495 142.762 155.515 142.739C155.533 142.717 155.553 142.694 155.571 142.671L155.574 142.668L155.575 142.666L155.605 142.629L155.636 142.592C155.651 142.573 155.666 142.553 155.682 142.534L155.722 142.486C155.739 142.463 155.757 142.441 155.775 142.418C155.807 142.377 155.839 142.336 155.871 142.294C155.892 142.269 155.911 142.243 155.931 142.217C155.961 142.177 155.992 142.137 156.022 142.096C156.042 142.07 156.061 142.043 156.081 142.016C156.112 141.976 156.141 141.935 156.17 141.894C156.189 141.868 156.208 141.843 156.227 141.817L156.228 141.815V141.814C156.249 141.786 156.269 141.757 156.29 141.728L156.32 141.685L156.321 141.683L156.322 141.682L156.323 141.68C156.337 141.66 156.351 141.64 156.365 141.619C156.4 141.569 156.434 141.519 156.469 141.469L156.502 141.42L156.503 141.417L156.53 141.377C156.558 141.334 156.587 141.291 156.615 141.247L156.635 141.217C156.657 141.184 156.678 141.15 156.7 141.116C156.718 141.088 156.735 141.059 156.754 141.031L156.768 141.009C156.809 140.943 156.85 140.877 156.891 140.81L156.897 140.798C156.94 140.729 156.981 140.659 157.023 140.588L157.024 140.585C157.067 140.513 157.108 140.44 157.149 140.367L157.15 140.366C157.293 140.112 157.429 139.855 157.557 139.593C157.705 139.293 157.843 138.989 157.972 138.681L157.973 138.681C159.854 134.165 159.602 128.914 157.056 124.512C154.874 120.742 151.324 118.14 147.315 117.108L147.308 117.109C146.058 116.789 144.747 116.618 143.398 116.618C142.316 116.618 141.258 116.728 140.237 116.937C140.213 116.942 140.19 116.947 140.165 116.952C132.99 118.455 127.599 124.858 127.599 132.53C127.599 135.984 128.692 139.181 130.548 141.789L130.549 141.789C130.553 141.795 130.557 141.8 130.56 141.806C130.6 141.859 130.638 141.913 130.677 141.966C130.69 141.984 130.704 142.002 130.717 142.02C130.757 142.076 130.799 142.131 130.841 142.185C130.852 142.2 130.863 142.215 130.874 142.229C130.908 142.274 130.942 142.319 130.978 142.363C130.995 142.385 131.013 142.408 131.03 142.43C131.063 142.472 131.096 142.514 131.129 142.555C131.151 142.582 131.173 142.608 131.195 142.635C131.227 142.675 131.26 142.714 131.293 142.754C131.313 142.778 131.333 142.802 131.353 142.825C131.361 142.836 131.371 142.847 131.38 142.857V142.857C133.132 144.922 135.362 146.479 137.835 147.417V147.419C137.053 147.123 136.306 146.769 135.596 146.364H135.591C136.092 146.651 136.61 146.912 137.143 147.144C137.636 147.357 138.138 147.543 138.644 147.704L138.641 147.698V147.697C140.423 148.263 142.315 148.515 144.236 148.412C145.124 148.365 145.997 148.243 146.848 148.051L146.862 148.048C146.917 148.035 146.973 148.022 147.028 148.009C147.057 148.002 147.087 147.995 147.115 147.988C147.15 147.98 147.185 147.971 147.219 147.963C147.262 147.952 147.304 147.941 147.347 147.93C147.373 147.923 147.399 147.916 147.423 147.91C147.473 147.897 147.522 147.883 147.572 147.87L147.621 147.856C147.676 147.841 147.731 147.825 147.785 147.809L147.822 147.798C147.883 147.78 147.944 147.762 148.005 147.743L148.028 147.736C148.357 147.635 148.684 147.522 149.007 147.398ZM153.32 148.134L153.319 148.129L153.315 148.131L153.32 148.134ZM146.679 114.295C146.714 114.302 146.749 114.308 146.783 114.315C146.832 114.324 146.881 114.333 146.929 114.342C146.986 114.353 147.043 114.365 147.099 114.376C147.131 114.383 147.161 114.39 147.193 114.396C147.262 114.41 147.329 114.425 147.396 114.44C147.419 114.445 147.441 114.451 147.465 114.456C147.54 114.473 147.616 114.491 147.692 114.509L147.73 114.518C147.814 114.539 147.897 114.56 147.982 114.581L148.01 114.589C148.096 114.611 148.18 114.633 148.263 114.657L148.283 114.662C148.369 114.686 148.455 114.71 148.541 114.735L148.565 114.742L148.59 114.75V114.75C148.607 114.755 148.624 114.76 148.641 114.765C148.673 114.775 148.706 114.785 148.738 114.795C148.797 114.813 148.859 114.832 148.917 114.851C148.95 114.861 148.982 114.871 149.014 114.881C149.073 114.9 149.131 114.919 149.191 114.939C149.224 114.951 149.259 114.962 149.292 114.973C149.35 114.993 149.409 115.013 149.466 115.034C149.499 115.045 149.532 115.057 149.567 115.069C149.623 115.089 149.679 115.11 149.735 115.13C149.77 115.143 149.804 115.156 149.838 115.169C149.893 115.189 149.948 115.21 150.003 115.232C150.039 115.246 150.075 115.26 150.112 115.274C150.163 115.294 150.214 115.315 150.265 115.335C150.305 115.352 150.346 115.368 150.386 115.385C150.433 115.404 150.479 115.423 150.525 115.443C150.569 115.462 150.614 115.48 150.656 115.499C150.699 115.518 150.742 115.536 150.785 115.555C150.831 115.576 150.879 115.597 150.925 115.618C150.964 115.635 151.002 115.653 151.042 115.67C151.09 115.693 151.141 115.716 151.191 115.74C151.227 115.757 151.265 115.775 151.302 115.793C151.353 115.817 151.403 115.841 151.455 115.866C154.236 117.229 156.675 119.296 158.501 121.934C161.737 126.612 162.633 132.495 161.017 137.881C160.993 137.958 160.97 138.035 160.947 138.111L160.931 138.158C160.907 138.237 160.881 138.316 160.854 138.395L160.841 138.439C160.815 138.514 160.789 138.589 160.764 138.664C160.755 138.688 160.746 138.711 160.738 138.735C160.712 138.807 160.686 138.879 160.66 138.952L160.642 138.999C160.612 139.081 160.581 139.163 160.549 139.245L160.541 139.266C160.507 139.354 160.472 139.441 160.437 139.528L160.433 139.537C160.397 139.627 160.36 139.718 160.321 139.808V139.809C160.17 140.163 160.009 140.512 159.838 140.855L163.163 142.789C163.96 142.217 165.051 142.126 165.95 142.649L173.715 147.165C174.942 147.877 175.365 149.471 174.657 150.706C173.95 151.941 172.368 152.368 171.141 151.655L163.376 147.139C162.477 146.617 162.008 145.62 162.103 144.639L158.775 142.704C158.199 143.584 157.552 144.412 156.84 145.178L156.839 145.18C155.795 146.305 154.612 147.299 153.32 148.134C153.084 148.287 152.845 148.433 152.604 148.574V148.574L152.541 148.611L152.509 148.629C152.432 148.674 152.354 148.718 152.275 148.761L152.237 148.783C152.162 148.825 152.086 148.866 152.009 148.907L151.961 148.932C151.889 148.971 151.817 149.009 151.743 149.046L151.684 149.077C151.616 149.111 151.548 149.145 151.479 149.179C151.452 149.192 151.425 149.205 151.399 149.219C151.336 149.249 151.274 149.279 151.213 149.308C151.178 149.324 151.144 149.34 151.111 149.356C151.055 149.381 151 149.407 150.944 149.433C150.902 149.452 150.859 149.471 150.818 149.489C150.771 149.51 150.726 149.53 150.68 149.55C150.625 149.574 150.569 149.597 150.514 149.621C150.485 149.633 150.456 149.645 150.426 149.657C145.762 151.603 140.467 151.54 135.813 149.413L135.78 149.398C135.689 149.356 135.599 149.314 135.508 149.271C135.486 149.26 135.464 149.25 135.442 149.239C135.362 149.2 135.282 149.161 135.203 149.121C135.177 149.108 135.15 149.095 135.124 149.081C135.045 149.041 134.965 149 134.887 148.958C134.863 148.946 134.839 148.934 134.816 148.921L134.803 148.914V148.914C128.973 145.806 125 139.636 125 132.53C125 122.606 132.747 114.505 142.481 114.024L142.482 114.024C143.903 113.951 145.311 114.046 146.679 114.295Z" fill="#5A54F2"/>
<path d="M143.416 122.022C141.356 122.022 139.342 122.641 137.629 123.801C135.916 124.961 134.581 126.61 133.793 128.538C133.004 130.467 132.798 132.59 133.2 134.637C133.602 136.685 134.594 138.565 136.051 140.042C137.507 141.518 139.364 142.523 141.384 142.931C143.405 143.338 145.499 143.129 147.403 142.33C149.306 141.531 150.933 140.178 152.078 138.442C153.222 136.706 153.833 134.665 153.833 132.578C153.828 129.78 152.729 127.098 150.776 125.12C148.824 123.141 146.177 122.028 143.416 122.022ZM147.454 132.048L145.919 133.555C145.868 133.606 145.829 133.668 145.807 133.737C145.785 133.806 145.78 133.879 145.792 133.95L146.145 136.096C146.159 136.178 146.15 136.263 146.119 136.34C146.088 136.417 146.037 136.484 145.97 136.533C145.904 136.582 145.825 136.611 145.744 136.617C145.662 136.623 145.58 136.605 145.507 136.566L143.61 135.561C143.547 135.528 143.477 135.51 143.406 135.51C143.336 135.51 143.266 135.528 143.203 135.561L141.306 136.566C141.234 136.6 141.154 136.613 141.076 136.604C140.997 136.596 140.922 136.566 140.859 136.518C140.795 136.47 140.746 136.405 140.716 136.331C140.686 136.257 140.676 136.176 140.688 136.096L141.05 133.958C141.063 133.886 141.058 133.813 141.036 133.744C141.013 133.676 140.975 133.613 140.924 133.563L139.389 132.055C139.331 131.997 139.291 131.923 139.272 131.843C139.254 131.763 139.258 131.679 139.283 131.601C139.309 131.522 139.356 131.453 139.418 131.4C139.48 131.347 139.556 131.313 139.637 131.301L141.76 130.989C141.831 130.978 141.898 130.948 141.955 130.905C142.012 130.861 142.059 130.804 142.089 130.738L143.037 128.79C143.073 128.716 143.129 128.653 143.199 128.608C143.269 128.564 143.349 128.541 143.431 128.541C143.513 128.541 143.594 128.564 143.664 128.608C143.733 128.653 143.789 128.716 143.826 128.79L144.773 130.738C144.804 130.804 144.85 130.861 144.908 130.905C144.965 130.948 145.032 130.978 145.103 130.989L147.226 131.301C147.303 131.317 147.375 131.353 147.434 131.407C147.492 131.461 147.535 131.529 147.559 131.606C147.582 131.682 147.585 131.763 147.566 131.841C147.548 131.919 147.509 131.99 147.454 132.048Z" fill="#5A54F2"/>
</svg>
